<?xml version="1.0" standalone="no"?>
<!DOCTYPE svg PUBLIC "-//W3C//DTD SVG 20010904//EN"
 "http://www.w3.org/TR/2001/REC-SVG-20010904/DTD/svg10.dtd">
<svg version="1.0" xmlns="http://www.w3.org/2000/svg"
 width="512.000000pt" height="512.000000pt" viewBox="0 0 512.000000 512.000000"
 preserveAspectRatio="xMidYMid meet">

<g transform="translate(0.000000,512.000000) scale(0.100000,-0.100000)"
fill="#000000" stroke="none">
<path d="M4660 5111 c-41 -13 -84 -38 -107 -63 -12 -12 -217 -391 -457 -842
-239 -450 -439 -823 -443 -827 -5 -5 -52 2 -107 16 -116 30 -255 33 -356 9
-206 -48 -390 -217 -487 -447 -47 -111 -122 -259 -168 -332 -162 -255 -402
-488 -659 -640 -318 -188 -698 -303 -1065 -322 -110 -6 -126 -9 -151 -30 -34
-28 -45 -69 -30 -107 15 -40 146 -192 291 -337 493 -494 1138 -862 1855 -1059
262 -72 678 -141 758 -126 46 9 138 78 265 201 313 302 592 731 805 1237 60
144 214 589 253 733 25 92 23 261 -5 358 -52 183 -167 338 -318 430 -29 17
-54 35 -54 39 0 4 142 400 316 880 174 480 319 894 321 920 9 84 -53 184 -157
250 -86 55 -223 82 -300 59z m187 -231 c32 -19 55 -39 58 -53 4 -16 -91 -291
-295 -858 -166 -459 -307 -846 -314 -860 l-11 -26 -217 97 c-120 53 -220 99
-223 102 -3 3 189 370 426 817 l431 811 47 0 c33 0 61 -9 98 -30z m-1315
-1694 c98 -31 848 -367 909 -407 137 -88 229 -263 229 -434 0 -61 -12 -141
-22 -150 -7 -6 -147 17 -209 36 -83 24 -141 66 -179 128 -36 58 -52 64 -158
55 -63 -5 -87 -3 -135 14 -80 29 -148 81 -180 140 -33 61 -61 74 -140 66 -51
-5 -75 -1 -135 19 -105 36 -180 84 -211 134 -29 48 -51 59 -135 67 -60 5 -157
46 -204 86 -32 26 -24 47 50 125 106 114 216 159 365 150 47 -3 114 -15 155
-29z m-555 -491 c28 -13 78 -29 110 -36 37 -8 64 -21 76 -36 64 -80 309 -193
420 -193 31 0 45 -7 80 -43 23 -24 58 -55 77 -69 86 -65 232 -118 329 -118 38
0 50 -6 98 -50 30 -27 82 -63 116 -79 66 -31 212 -71 259 -71 16 0 31 -6 34
-13 2 -7 -15 -69 -38 -137 l-43 -125 -60 2 c-145 5 -248 49 -332 141 l-62 67
-113 0 c-108 0 -117 2 -179 32 -64 32 -149 108 -149 135 -1 17 -31 52 -57 66
-14 8 -52 10 -110 6 -75 -5 -96 -3 -145 15 -82 32 -142 81 -169 141 -32 72
-56 84 -144 76 -89 -8 -161 15 -225 72 l-41 37 43 76 c24 41 54 98 67 127 l24
51 41 -25 c23 -14 64 -36 93 -49z m-348 -383 c88 -68 196 -112 278 -112 44 0
50 -3 72 -35 71 -105 275 -204 417 -205 38 0 48 -6 110 -68 105 -104 225 -156
379 -166 61 -4 69 -7 116 -50 80 -72 224 -132 362 -151 43 -6 47 -8 42 -28
-11 -36 -160 -340 -216 -440 -71 -126 -223 -354 -305 -457 -86 -107 -270 -297
-342 -352 l-54 -42 -137 17 c-131 17 -380 63 -390 73 -3 2 6 12 20 21 13 9 68
60 123 112 158 154 326 389 466 655 l63 119 -169 -170 c-231 -233 -411 -364
-643 -467 -157 -71 -341 -123 -384 -110 -81 24 -402 171 -504 231 l-43 25 53
39 c76 58 210 192 282 284 63 81 170 245 160 245 -4 0 -32 -17 -63 -38 -144
-98 -356 -196 -595 -278 l-159 -54 -76 57 c-135 99 -303 244 -432 372 l-125
125 120 18 c403 60 783 214 1105 446 109 79 325 282 388 364 20 27 38 48 40
48 2 0 21 -13 41 -28z"/>
<path d="M302 4284 c-251 -67 -374 -354 -250 -586 80 -149 257 -238 420 -209
227 40 378 250 339 469 -43 241 -275 389 -509 326z m185 -205 c35 -11 98 -75
113 -115 6 -14 10 -48 10 -75 0 -111 -88 -199 -200 -199 -112 0 -200 88 -200
200 0 64 18 106 63 149 57 54 125 66 214 40z"/>
<path d="M1245 3971 c-73 -34 -115 -102 -115 -187 0 -157 184 -252 316 -162
127 87 110 286 -32 353 -43 20 -120 19 -169 -4z"/>
<path d="M1115 3273 c-65 -7 -156 -38 -223 -77 -263 -155 -352 -493 -200 -763
43 -76 145 -176 217 -212 101 -51 158 -65 266 -65 119 0 192 19 285 74 257
151 351 473 218 740 -43 84 -155 198 -235 238 -101 51 -223 75 -328 65z m162
-218 c106 -31 205 -126 239 -227 22 -68 20 -172 -7 -244 -16 -44 -37 -74 -83
-120 -78 -76 -144 -104 -249 -104 -234 1 -401 214 -343 439 51 198 250 313
443 256z"/>
</g>
</svg>
