<?xml version="1.0" standalone="no"?>
<!DOCTYPE svg PUBLIC "-//W3C//DTD SVG 20010904//EN"
 "http://www.w3.org/TR/2001/REC-SVG-20010904/DTD/svg10.dtd">
<svg version="1.0" xmlns="http://www.w3.org/2000/svg"
 width="1600.000000pt" height="1600.000000pt" viewBox="0 0 1600.000000 1600.000000"
 preserveAspectRatio="xMidYMid meet">

<g transform="translate(0.000000,1600.000000) scale(0.100000,-0.100000)"
fill="#000000" stroke="none">
<path d="M14915 15966 c-143 -33 -274 -107 -372 -209 -79 -83 -115 -143 -162
-268 -21 -57 -348 -907 -726 -1889 -689 -1791 -1413 -3672 -2329 -6053 l-492
-1278 -140 -62 c-637 -282 -1318 -677 -1834 -1062 -1122 -841 -1735 -1729
-1856 -2692 -20 -167 -21 -454 0 -595 126 -866 742 -1461 1714 -1657 351 -71
76 -66 3677 -66 l3240 0 47 23 c60 30 120 90 150 150 30 63 36 172 13 241 -19
59 -91 143 -146 171 -21 11 -122 44 -226 74 -662 192 -1324 510 -1805 868
-770 574 -1189 1243 -1278 2048 -17 149 -15 468 5 635 33 291 119 644 226 935
28 74 56 158 64 185 7 28 715 2179 1573 4780 858 2602 1570 4768 1581 4814 37
151 23 328 -38 466 -68 153 -223 304 -381 370 -25 10 -50 23 -55 29 -19 20
-53 36 -57 26 -2 -6 -24 -3 -53 6 -69 22 -263 28 -340 10z m220 -616 c52 -12
95 -59 95 -104 0 -31 -3034 -9263 -3049 -9277 -3 -4 -159 51 -346 120 -239 89
-340 131 -339 142 1 8 223 590 494 1294 1152 2997 2491 6483 2781 7240 110
286 204 530 211 542 12 24 62 53 93 53 11 0 38 -5 60 -10z m-3603 -9821 c238
-88 434 -162 436 -164 2 -2 -12 -56 -32 -122 -134 -449 -190 -812 -190 -1238
-1 -332 22 -530 93 -820 182 -739 666 -1439 1354 -1959 159 -120 265 -182 572
-332 l270 -133 -772 0 -772 -1 -143 25 c-446 77 -761 218 -983 440 -50 50
-112 122 -138 162 -196 295 -255 671 -165 1057 45 195 -3 334 -140 409 -126
69 -274 50 -375 -48 -50 -49 -80 -112 -105 -220 -110 -476 -62 -955 133 -1345
86 -172 157 -272 294 -412 l65 -68 -144 0 c-813 1 -1319 204 -1511 605 -70
145 -83 212 -83 440 -1 181 2 212 27 328 105 493 413 1081 761 1457 91 98 120
161 121 260 0 62 -5 85 -28 132 -89 181 -311 237 -479 121 -83 -57 -325 -352
-473 -578 -306 -465 -489 -934 -556 -1425 -17 -123 -17 -442 0 -545 41 -253
124 -472 252 -661 27 -40 49 -75 49 -77 0 -14 -283 62 -388 104 -489 194 -779
539 -848 1009 -20 135 -15 366 11 520 99 599 460 1191 1065 1749 475 437 1066
840 1767 1203 197 102 588 286 610 287 6 1 207 -71 445 -160z"/>
<path d="M4810 14685 c-831 -95 -1566 -541 -2060 -1249 l-54 -76 -60 0 c-34 0
-101 -7 -149 -14 -94 -16 -257 -63 -257 -76 0 -6 367 -427 425 -489 11 -11 35
-8 152 18 79 18 167 31 205 31 l66 0 50 93 c343 634 946 1051 1672 1153 124
17 410 20 535 4 222 -28 482 -102 678 -193 369 -173 700 -459 927 -803 156
-236 250 -462 330 -793 l31 -129 252 -5 c271 -5 337 -15 497 -72 354 -127 645
-424 780 -793 l28 -77 332 -3 332 -2 -7 42 c-11 63 -51 197 -91 307 -144 386
-417 721 -776 955 -217 141 -517 248 -766 274 l-74 7 -42 105 c-113 274 -234
486 -414 720 -100 129 -379 402 -517 506 -400 299 -840 479 -1344 550 -156 21
-527 26 -681 9z"/>
<path d="M595 14103 c-123 -28 -199 -83 -244 -175 -16 -35 -33 -84 -36 -109
-9 -63 17 -161 58 -218 19 -25 223 -277 455 -559 l422 -514 -64 -81 c-186
-240 -328 -501 -420 -778 -43 -129 -96 -353 -96 -404 l0 -25 315 0 315 0 5 23
c3 12 10 44 15 71 18 82 80 266 123 361 43 97 132 256 177 318 l28 38 458
-556 c253 -306 461 -561 462 -566 2 -5 -454 -9 -1150 -9 -1025 0 -1160 -2
-1209 -16 -68 -20 -139 -65 -160 -101 -28 -46 -49 -133 -49 -198 0 -33 358
-2351 795 -5150 640 -4094 799 -5098 817 -5135 32 -66 116 -144 183 -169 l56
-21 3037 0 3037 0 -100 53 c-245 130 -461 303 -615 496 l-65 81 -2477 0
c-1458 0 -2478 4 -2478 9 0 5 -178 1138 -395 2517 -217 1380 -552 3512 -745
4737 -192 1226 -350 2237 -350 2248 0 19 18 19 1193 19 l1193 0 31 -32 c16
-18 324 -391 683 -828 359 -437 660 -803 668 -812 13 -16 13 -25 -3 -80 -22
-78 -22 -231 -1 -313 28 -107 84 -203 166 -286 88 -89 171 -139 285 -170 110
-30 266 -24 374 14 178 63 325 209 388 387 35 97 43 263 19 361 -27 109 -82
205 -166 290 -130 131 -267 190 -451 192 l-106 2 -2026 2457 c-1114 1352
-2046 2482 -2072 2511 -70 81 -202 138 -280 120z"/>
<path d="M4191 10878 c19 -24 132 -166 252 -315 l217 -273 2400 0 c2279 0
2400 -1 2400 -17 0 -10 -171 -1102 -379 -2428 -209 -1325 -378 -2411 -377
-2412 1 -2 58 38 127 89 166 122 394 272 504 331 l90 49 67 426 c37 235 203
1282 369 2327 327 2064 317 1991 269 2090 -30 62 -115 137 -180 158 -49 16
-252 17 -2922 17 l-2870 0 33 -42z"/>
</g>
</svg>
